# xmcd
#
# Track frame offsets:
# 150
# 16020
# 34990
# 54403
# 69923
# 85895
# 106435
# 122735
# 144773
# 173383
# 194900
# 216729
# 245976
# 268747
# 290085
# 309975
#
# Disc length: 4354 seconds
#
#
# Revision: 0
# Processed by: cddbd v1.5PL3 Copyright (c) Steve Scherf et al.
# Submitted via: FreeRIP 2.60 
#
DISCID=f0110010
DTITLE=Eagles - The best of Eagles
DYEAR=1900
DGENRE=Country
TTITLE0=Witchy Woman
TTITLE1=Peaceful Easy Feeling
TTITLE2=Dooling Dalton
TTITLE3=Desperado
TTITLE4=Tequila Sunrise
TTITLE5=Best of my love
TTITLE6=James Dean
TTITLE7=I Cant Tell You Why
TTITLE8=Lyin Eyes
TTITLE9=Take it to the Limit
TTITLE10=One of these Nights
TTITLE11=Hotel California
TTITLE12=New Kid in Town
TTITLE13=Life in the Fast Lane
TTITLE14=Heartache Tonight
TTITLE15=Take it Easy
EXTD=
EXTT0=
EXTT1=
EXTT2=
EXTT3=
EXTT4=
EXTT5=
EXTT6=
EXTT7=
EXTT8=
EXTT9=
EXTT10=
EXTT11=
EXTT12=
EXTT13=
EXTT14=
EXTT15=
PLAYORDER=
